<?xml version="1.0" standalone="no"?><svg xmlns="http://www.w3.org/2000/svg" viewBox="0 0 1440 320"><path fill="#dc3545" fill-opacity="1" d="M0,96L21.8,106.7C43.6,117,87,139,131,133.3C174.5,128,218,96,262,80C305.5,64,349,64,393,106.7C436.4,149,480,235,524,245.3C567.3,256,611,192,655,144C698.2,96,742,64,785,48C829.1,32,873,32,916,37.3C960,43,1004,53,1047,58.7C1090.9,64,1135,64,1178,74.7C1221.8,85,1265,107,1309,128C1352.7,149,1396,171,1418,181.3L1440,192L1440,0L1418.2,0C1396.4,0,1353,0,1309,0C1265.5,0,1222,0,1178,0C1134.5,0,1091,0,1047,0C1003.6,0,960,0,916,0C872.7,0,829,0,785,0C741.8,0,698,0,655,0C610.9,0,567,0,524,0C480,0,436,0,393,0C349.1,0,305,0,262,0C218.2,0,175,0,131,0C87.3,0,44,0,22,0L0,0Z"></path></svg>