<?xml version="1.0" standalone="no"?><svg xmlns="http://www.w3.org/2000/svg" viewBox="0 0 1440 320"><path fill="#dc3545" fill-opacity="1" d="M0,192L40,181.3C80,171,160,149,240,144C320,139,400,149,480,160C560,171,640,181,720,192C800,203,880,213,960,224C1040,235,1120,245,1200,229.3C1280,213,1360,171,1400,149.3L1440,128L1440,320L1400,320C1360,320,1280,320,1200,320C1120,320,1040,320,960,320C880,320,800,320,720,320C640,320,560,320,480,320C400,320,320,320,240,320C160,320,80,320,40,320L0,320Z"></path></svg>